<svg width="8" height="8" viewBox="0 0 8 8" fill="none" xmlns="http://www.w3.org/2000/svg">
<g id="Icon-Note">
<g id="Layer 2">
<g id="Layer 18">
<path id="Vector" d="M0.876814 3.1738C0.644269 3.1738 0.421248 3.26618 0.256813 3.43061C0.0923784 3.59505 0 3.81807 0 4.05061C0 4.28316 0.0923784 4.50618 0.256813 4.67061C0.421248 4.83505 0.644269 4.92743 0.876814 4.92743C1.36211 4.92743 2.99367 4.05061 2.99367 4.05061C2.99367 4.05061 1.36211 3.1738 0.876814 3.1738Z" fill="#0BAB64"/>
<path id="Vector_2" d="M2.44759 6.86416C2.78998 6.52028 3.3244 4.7473 3.3244 4.7473C3.3244 4.7473 1.54993 5.28024 1.20754 5.62263C1.04291 5.78707 0.950335 6.01017 0.950195 6.24287C0.950056 6.47556 1.04236 6.69878 1.2068 6.86341C1.37124 7.02805 1.59435 7.12062 1.82704 7.12076C2.05973 7.1209 2.28295 7.0286 2.44759 6.86416Z" fill="#0BAB64"/>
<path id="Vector_3" d="M4.05064 8C4.28333 7.9996 4.50634 7.9069 4.67074 7.74222C4.83513 7.57755 4.92746 7.35438 4.92746 7.1217C4.92746 6.63789 4.05064 5.00484 4.05064 5.00484C4.05064 5.00484 3.17383 6.64235 3.17383 7.1217C3.17363 7.23697 3.19617 7.35114 3.24015 7.4577C3.28412 7.56425 3.34868 7.66108 3.43012 7.74266C3.51155 7.82424 3.60828 7.88896 3.71476 7.93311C3.82123 7.97727 3.93537 8 4.05064 8Z" fill="#0BAB64"/>
<path id="Vector_4" d="M6.86393 6.79271C7.02847 6.62802 7.12089 6.40474 7.12089 6.17194C7.12089 5.93914 7.02847 5.71587 6.86393 5.55118C6.52005 5.21028 4.74707 4.67436 4.74707 4.67436C4.74707 4.67436 5.28001 6.44883 5.6224 6.79271C5.78709 6.95725 6.01036 7.04967 6.24316 7.04967C6.47596 7.04967 6.69924 6.95725 6.86393 6.79271Z" fill="#0BAB64"/>
<path id="Vector_5" d="M7.12174 3.07257C6.63793 3.07257 5.00488 3.94939 5.00488 3.94939C5.00488 3.94939 6.6424 4.8262 7.12174 4.8262C7.35429 4.8262 7.57731 4.73382 7.74174 4.56939C7.90618 4.40495 7.99856 4.18193 7.99856 3.94939C7.99856 3.71684 7.90618 3.49382 7.74174 3.32938C7.57731 3.16495 7.35429 3.07257 7.12174 3.07257Z" fill="#0BAB64"/>
<path id="Vector_6" d="M5.55162 1.13584C5.21072 1.47823 4.6748 3.2527 4.6748 3.2527C4.6748 3.2527 6.44927 2.71827 6.79315 2.38184C6.95759 2.2172 7.0499 1.99398 7.04976 1.76129C7.04962 1.5286 6.95705 1.30549 6.79241 1.14105C6.71089 1.05963 6.61413 0.995058 6.50765 0.95103C6.40118 0.907002 6.28708 0.884376 6.17186 0.884445C5.93917 0.884585 5.71606 0.977156 5.55162 1.14179V1.13584Z" fill="#0BAB64"/>
<path id="Vector_7" d="M4.82589 0.876814C4.82589 0.644269 4.73352 0.421248 4.56908 0.256813C4.40465 0.0923784 4.18163 0 3.94908 0C3.71653 0 3.49351 0.0923784 3.32908 0.256813C3.16464 0.421248 3.07227 0.644269 3.07227 0.876814C3.07227 1.36211 3.94908 2.99367 3.94908 2.99367C3.94908 2.99367 4.82589 1.36211 4.82589 0.876814Z" fill="#0BAB64"/>
<path id="Vector_8" d="M1.13574 1.20729C1.05431 1.28871 0.989723 1.38537 0.945655 1.49176C0.901588 1.59814 0.878906 1.71216 0.878906 1.82731C0.878906 1.94246 0.901588 2.05648 0.945655 2.16287C0.989723 2.26925 1.05431 2.36591 1.13574 2.44733C1.47813 2.78972 3.2526 3.32415 3.2526 3.32415C3.2526 3.32415 2.71817 1.54968 2.38174 1.20729C2.30021 1.12497 2.20318 1.05962 2.09624 1.01502C1.98931 0.970426 1.8746 0.947464 1.75874 0.947464C1.64288 0.947464 1.52817 0.970426 1.42124 1.01502C1.3143 1.05962 1.21727 1.12497 1.13574 1.20729Z" fill="#0BAB64"/>
<path id="Vector_9" d="M4.01972 3.30034C3.8725 3.30034 3.72859 3.34399 3.60619 3.42578C3.48379 3.50757 3.38839 3.62381 3.33205 3.75982C3.27571 3.89583 3.26097 4.04549 3.28969 4.18987C3.31841 4.33426 3.3893 4.46688 3.4934 4.57098C3.59749 4.67508 3.73012 4.74597 3.87451 4.77469C4.01889 4.80341 4.16855 4.78867 4.30456 4.73233C4.44056 4.67599 4.55681 4.58059 4.6386 4.45819C4.72039 4.33578 4.76404 4.19188 4.76404 4.04466C4.76404 3.84726 4.68562 3.65793 4.54603 3.51835C4.40644 3.37876 4.21712 3.30034 4.01972 3.30034Z" fill="#0BAB64"/>
</g>
</g>
</g>
</svg>
