<svg width="664" height="26" viewBox="0 0 664 26" fill="none" xmlns="http://www.w3.org/2000/svg">
<g clip-path="url(#clip0_100_343)">
<path d="M458.348 12.2739C413.702 12.2739 345.484 12.1771 344.386 13.0484C343.287 13.8229 415 13.6293 459.347 13.7261C553.933 13.8229 664 13.242 664 13.0484C664 12.8548 552.934 12.2739 458.348 12.2739Z" fill="#D69F69"/>
<path d="M319.615 12.9516C320.714 12.1771 249 12.3707 204.653 12.2739C110.067 12.2739 0 12.758 0 12.9516C0 13.1452 111.066 13.7261 205.652 13.7261C250.298 13.6293 318.516 13.7261 319.615 12.9516Z" fill="#D69F69"/>
<path d="M342.688 12.4675C344.286 12.6611 345.784 12.0802 346.483 10.628C347.282 8.88531 346.483 7.33626 345.984 6.65854C345.284 5.7872 343.886 5.30312 342.987 5.59356C341.189 6.07764 340.091 8.7885 342.188 9.65984C342.887 9.95029 343.886 9.75666 344.286 9.36939C344.985 8.59487 344.485 8.11078 344.286 8.01397C343.387 7.43307 342.887 8.7885 342.388 7.91715C342.088 7.43307 342.688 6.75536 343.387 6.56173C343.986 6.36809 344.685 6.56173 345.284 7.04581C346.183 7.82034 346.483 9.17576 345.984 10.2407C345.484 11.3057 344.186 11.9834 343.087 11.7898C342.388 11.693 341.289 11.3057 340.49 10.7248C339.392 9.75666 338.093 7.91715 336.994 6.46491C337.094 6.56173 337.294 6.56173 337.494 6.65854C337.793 6.75536 338.093 6.85217 338.393 6.75536C338.493 6.75536 338.592 6.75536 338.592 6.75536C338.692 6.75536 338.792 6.75536 338.792 6.75536C338.992 6.75536 339.092 6.65854 339.292 6.56173L339.392 6.46491L339.491 6.36809C339.591 6.27128 339.591 6.27128 339.691 6.17446L339.791 6.07764L339.891 5.98083C339.891 5.88401 339.991 5.7872 339.991 5.69038C340.091 5.49675 340.091 5.30312 339.991 5.10948C339.991 4.91585 339.891 4.72222 339.791 4.6254C339.591 4.33495 339.392 4.14132 339.192 4.0445C339.092 4.0445 338.992 3.94769 338.992 4.0445C338.892 4.0445 338.892 4.0445 338.892 4.14132C338.892 4.23814 338.892 4.23814 338.892 4.33495V4.43177V4.52859C338.992 4.6254 338.992 4.81903 339.092 5.01267C339.092 5.10948 339.092 5.2063 339.092 5.30312C339.092 5.39993 339.092 5.49675 339.092 5.59356C339.092 5.69038 338.992 5.7872 338.992 5.7872C338.892 5.88401 338.892 5.88401 338.792 5.98083C338.692 5.98083 338.692 6.07764 338.592 6.07764C338.493 6.07764 338.393 6.07764 338.293 6.17446C338.093 6.17446 337.793 6.17446 337.594 6.17446C337.394 6.17446 337.094 6.07764 336.895 5.98083C336.695 5.88401 336.495 5.7872 336.295 5.69038C336.095 5.59356 335.896 5.39993 335.696 5.30312C335.496 5.01267 335.197 4.72222 335.197 4.72222C335.197 4.72222 334.797 4.33495 334.597 4.23814C333.798 3.75406 332.899 3.46361 332 3.46361C331.101 3.46361 330.203 3.75406 329.404 4.23814C329.204 4.33495 328.704 4.91585 328.305 5.30312C328.105 5.39993 327.905 5.59356 327.706 5.69038C327.506 5.7872 327.306 5.88401 327.106 5.98083C326.907 6.07764 326.707 6.17446 326.407 6.17446C326.207 6.17446 325.908 6.27128 325.708 6.17446C325.608 6.17446 325.508 6.17446 325.408 6.07764C325.308 6.07764 325.209 5.98083 325.209 5.98083C325.109 5.98083 325.109 5.88401 325.009 5.7872C325.009 5.69038 324.909 5.59356 324.909 5.59356C324.909 5.49675 324.909 5.39993 324.909 5.30312C324.909 5.2063 324.909 5.10948 324.909 5.01267C324.909 4.81903 325.009 4.72222 325.109 4.52859V4.43177V4.33495C325.109 4.23814 325.109 4.23814 325.109 4.14132C325.109 4.0445 325.009 4.0445 325.009 4.0445C324.909 4.0445 324.809 4.0445 324.809 4.0445C324.609 4.14132 324.41 4.33495 324.21 4.6254C324.11 4.81903 324.11 4.91585 324.01 5.10948C324.01 5.30312 324.01 5.49675 324.11 5.69038C324.11 5.7872 324.21 5.88401 324.21 5.98083C324.21 5.98083 324.21 6.07764 324.31 6.07764C324.31 6.07764 324.31 6.17446 324.41 6.17446C324.509 6.27128 324.509 6.36809 324.609 6.36809L324.709 6.46491L324.809 6.56173C325.009 6.65854 325.109 6.75536 325.308 6.75536C325.408 6.75536 325.508 6.75536 325.608 6.75536C325.708 6.75536 325.808 6.75536 325.808 6.75536C326.108 6.75536 326.507 6.65854 326.707 6.56173C326.907 6.46491 327.006 6.46491 327.206 6.36809C326.008 7.91715 324.709 9.85348 323.611 10.8216C322.911 11.4994 321.813 11.8866 321.114 11.9834C319.915 12.1771 318.617 11.4994 318.117 10.4344C317.618 9.36939 317.917 8.01397 318.816 7.23944C319.416 6.75536 320.115 6.56173 320.714 6.75536C321.313 6.94899 321.913 7.52989 321.713 8.01397C321.213 8.98213 320.714 7.52989 319.815 8.2076C319.615 8.40123 319.116 8.88531 319.815 9.56303C320.215 10.0471 321.213 10.1439 321.913 9.85348C324.01 8.88531 322.911 6.17446 321.014 5.7872C320.115 5.59356 318.617 6.07764 318.017 6.94899C316.619 9.07895 317.318 10.5312 317.518 10.9185C318.217 12.3707 319.715 12.9516 321.313 12.758C322.512 12.5643 324.11 11.5962 324.709 10.5312C324.21 11.7898 324.41 12.6611 324.809 13.242C324.41 13.7261 324.21 14.5975 324.809 15.8561C324.11 14.7911 322.512 13.8229 321.313 13.6293C319.715 13.4357 318.217 14.0166 317.518 15.4688C316.719 17.2115 317.518 18.7606 318.017 19.4383C318.716 20.3096 320.115 20.7937 321.014 20.5033C322.811 20.0192 323.91 17.3083 321.813 16.437C321.114 16.1465 320.115 16.3402 319.715 16.7274C319.016 17.502 319.515 17.986 319.715 18.0829C320.614 18.6637 321.114 17.3083 321.613 18.1797C321.913 18.6637 321.313 19.3415 320.614 19.5351C320.015 19.7287 319.316 19.5351 318.716 19.051C317.818 18.2765 317.518 16.9211 318.017 15.8561C318.517 14.7911 319.815 14.1134 320.914 14.307C321.613 14.4038 322.712 14.7911 323.511 15.372C324.609 16.3402 325.908 18.1797 327.006 19.6319C326.907 19.5351 326.707 19.5351 326.507 19.4383C326.207 19.3415 325.908 19.2446 325.608 19.3415C325.508 19.3415 325.408 19.3415 325.408 19.3415C325.308 19.3415 325.209 19.3415 325.209 19.3415C325.009 19.3415 324.909 19.4383 324.709 19.5351L324.609 19.6319L324.509 19.7287C324.41 19.8255 324.41 19.8255 324.31 19.9224L324.21 20.0192L324.11 20.116C324.11 20.2128 324.01 20.3096 324.01 20.4064C323.91 20.6001 323.91 20.7937 324.01 20.9873C324.01 21.181 324.11 21.3746 324.21 21.4714C324.41 21.7619 324.609 21.9555 324.809 22.0523C324.909 22.0523 325.009 22.1491 325.009 22.0523C325.109 22.0523 325.109 22.0523 325.109 21.9555C325.109 21.8587 325.109 21.8587 325.109 21.7619V21.6651V21.5682C325.009 21.4714 325.009 21.2778 324.909 21.0842C324.909 20.9873 324.909 20.8905 324.909 20.7937C324.909 20.6969 324.909 20.6001 324.909 20.5033C324.909 20.4064 325.009 20.3096 325.009 20.3096C325.109 20.2128 325.109 20.2128 325.209 20.116C325.308 20.116 325.308 20.0192 325.408 20.0192C325.508 20.0192 325.608 20.0192 325.708 19.9224C325.908 19.9224 326.207 19.9224 326.407 19.9224C326.607 19.9224 326.907 20.0192 327.106 20.116C327.306 20.2128 327.506 20.3096 327.706 20.4064C327.905 20.5033 328.105 20.6969 328.305 20.7937C328.505 21.0842 328.804 21.3746 328.804 21.3746C328.804 21.3746 329.204 21.7619 329.404 21.8587C330.203 22.3428 331.101 22.6332 332 22.6332C332.899 22.6332 333.798 22.3428 334.597 21.8587C334.797 21.7619 335.296 21.181 335.696 20.7937C335.896 20.6969 336.095 20.5033 336.295 20.4064C336.495 20.3096 336.695 20.2128 336.895 20.116C337.094 20.0192 337.294 19.9224 337.594 19.9224C337.793 19.9224 338.093 19.8255 338.293 19.9224C338.393 19.9224 338.493 19.9224 338.592 20.0192C338.692 20.0192 338.792 20.116 338.792 20.116C338.892 20.116 338.892 20.2128 338.992 20.3096C338.992 20.4064 339.092 20.5033 339.092 20.5033C339.092 20.6001 339.092 20.6969 339.092 20.7937C339.092 20.8905 339.092 20.9873 339.092 21.0842C339.092 21.2778 338.992 21.3746 338.892 21.5682V21.6651V21.7619C338.892 21.8587 338.892 21.8587 338.892 21.9555C338.892 22.0523 338.992 22.0523 338.992 22.0523C339.092 22.0523 339.192 22.0523 339.192 22.0523C339.392 21.9555 339.591 21.7619 339.791 21.4714C339.891 21.2778 339.891 21.181 339.991 20.9873C339.991 20.7937 339.991 20.6001 339.891 20.4064C339.891 20.3096 339.791 20.2128 339.791 20.116C339.791 20.116 339.791 20.0192 339.691 20.0192C339.691 20.0192 339.691 19.9224 339.591 19.9224C339.491 19.8255 339.491 19.7287 339.392 19.7287L339.292 19.6319L339.192 19.5351C338.992 19.4383 338.892 19.3415 338.692 19.3415C338.592 19.3415 338.493 19.3415 338.393 19.3415C338.293 19.3415 338.193 19.3415 338.193 19.3415C337.893 19.3415 337.494 19.4383 337.294 19.5351C337.094 19.6319 336.994 19.6319 336.795 19.7287C337.893 18.2765 339.192 16.3402 340.29 15.372C340.99 14.6943 342.088 14.307 342.787 14.2102C343.986 14.0166 345.284 14.6943 345.784 15.7593C346.283 16.8242 345.984 18.1797 345.085 18.9542C344.485 19.4383 343.786 19.6319 343.187 19.4383C342.588 19.2446 341.988 18.6637 342.188 18.1797C342.688 17.2115 343.187 18.6637 344.086 17.986C344.286 17.7924 344.785 17.3083 344.086 16.6306C343.686 16.1465 342.688 16.0497 341.988 16.3402C339.891 17.3083 340.99 20.0192 342.887 20.4064C343.786 20.6001 345.284 20.116 345.884 19.2446C347.282 17.1147 346.583 15.6624 346.383 15.2752C345.684 13.8229 344.186 13.242 342.588 13.4357C341.389 13.6293 339.791 14.5975 339.192 15.6624C339.691 14.4038 339.491 13.5325 339.092 12.9516C339.491 12.4675 339.691 11.5962 339.092 10.3376C339.991 11.3057 341.489 12.2739 342.688 12.4675ZM328.305 6.65854C328.605 5.98083 329.503 4.23814 332 4.23814C334.497 4.23814 335.396 5.98083 335.696 6.56173C336.095 9.07895 333.998 10.2407 332.899 9.85348C333.698 8.98213 333.399 7.82034 333.199 7.23944V7.14262C333.499 7.04581 333.698 6.85217 333.698 6.65854C333.598 5.98083 332.899 5.88401 332.5 5.88401C332.3 5.88401 332.2 5.98083 332 5.98083C331.901 5.88401 331.701 5.88401 331.501 5.88401C331.201 5.88401 330.402 5.98083 330.302 6.65854C330.302 6.85217 330.502 7.04581 330.802 7.14262V7.23944C330.602 7.82034 330.302 8.98213 331.201 9.85348C330.003 10.2407 327.905 9.17576 328.305 6.65854ZM332 9.27258C331.301 8.69168 331.701 7.91715 331.901 7.72352C331.901 7.6267 332 7.6267 332 7.52989C332 7.52989 332.1 7.6267 332.1 7.72352C332.2 8.01397 332.6 8.69168 332 9.27258ZM335.796 19.3415C335.496 20.0192 334.597 21.7619 332.1 21.7619C329.603 21.7619 328.704 20.0192 328.405 19.4383C328.005 16.9211 330.103 15.7593 331.201 16.1465C330.402 17.0179 330.702 18.1797 330.902 18.7606V18.8574C330.602 18.9542 330.402 19.1478 330.402 19.3415C330.502 20.0192 331.201 20.116 331.601 20.116C331.801 20.116 331.901 20.0192 332.1 20.0192C332.2 20.116 332.4 20.116 332.6 20.116C332.899 20.116 333.698 20.0192 333.798 19.3415C333.798 19.1478 333.599 18.9542 333.299 18.8574V18.7606C333.499 18.1797 333.798 17.0179 332.899 16.1465C333.998 15.7593 336.195 16.8242 335.796 19.3415ZM332.1 16.7274C332.799 17.3083 332.4 18.0829 332.2 18.2765C332.2 18.3733 332.1 18.3733 332.1 18.4701C332.1 18.4701 332 18.3733 332 18.2765C331.801 17.986 331.401 17.3083 332.1 16.7274ZM338.293 16.5338C338.093 16.8242 336.895 18.3733 336.495 18.7606C336.095 15.4688 333.698 15.2752 332.899 15.372C332.6 15.4688 332.3 15.5656 332 15.6624C331.801 15.5656 331.501 15.4688 331.102 15.4688C330.302 15.372 327.905 15.5656 327.606 18.8574C327.206 18.4701 326.008 16.9211 325.808 16.6306C325.109 15.7593 325.109 15.1784 325.109 14.4038C325.109 14.1134 325.209 13.8229 325.408 13.6293C325.508 13.7261 325.608 13.7261 325.708 13.7261C326.008 13.8229 326.407 13.7261 326.707 13.7261C326.807 14.0166 326.507 14.2102 326.307 14.4038C325.708 14.7911 326.307 15.7593 327.206 15.4688C328.305 14.9847 328.205 13.8229 328.005 13.3389C328.005 13.242 327.905 13.1452 327.805 13.0484C327.905 12.9516 327.905 12.8548 328.005 12.8548C328.205 12.3707 328.305 11.2089 327.206 10.7248C326.307 10.3376 325.808 11.4025 326.307 11.7898C326.507 11.9834 326.807 12.1771 326.707 12.4675C326.407 12.3707 326.008 12.3707 325.708 12.4675C325.608 12.4675 325.508 12.5643 325.408 12.5643C325.209 12.3707 325.009 12.0802 325.009 11.7898C325.009 11.1121 325.109 10.4344 325.708 9.56303C325.908 9.27258 327.106 7.72352 327.506 7.33626C327.905 10.628 330.302 10.8216 331.102 10.7248C331.401 10.628 331.701 10.5312 332 10.4344C332.2 10.5312 332.5 10.628 332.899 10.628C333.698 10.7248 336.095 10.5312 336.395 7.23944C336.795 7.6267 337.993 9.17576 338.193 9.46621C338.892 10.3376 338.892 10.9185 338.892 11.693C338.892 11.9834 338.792 12.2739 338.592 12.4675C338.493 12.3707 338.393 12.3707 338.293 12.3707C337.993 12.2739 337.594 12.3707 337.294 12.3707C337.194 12.0802 337.494 11.8866 337.694 11.693C338.293 11.3057 337.694 10.3376 336.795 10.628C335.696 11.1121 335.796 12.2739 335.996 12.758C335.996 12.8548 336.095 12.9516 336.195 13.0484C336.095 13.1452 336.095 13.242 335.996 13.242C335.796 13.7261 335.696 14.8879 336.795 15.372C337.694 15.7593 338.193 14.6943 337.694 14.307C337.494 14.1134 337.194 13.9198 337.294 13.6293C337.594 13.7261 337.993 13.7261 338.293 13.6293C338.393 13.6293 338.493 13.5325 338.592 13.5325C338.792 13.7261 338.992 14.0166 338.992 14.307C338.992 14.9847 338.992 15.5656 338.293 16.5338Z" fill="#D69F69"/>
<path d="M658.6 12.9008C658.6 11.313 657.4 10.0229 655.9 10.0229C654.4 10.0229 653.1 11.313 653.1 12.9008C653.1 14.4886 654.3 15.7786 655.9 15.7786C657.5 15.7786 658.6 14.4886 658.6 12.9008Z" fill="#D69F69"/>
<path d="M661.6 15.084C662.76 15.084 663.7 14.1065 663.7 12.9008C663.7 11.695 662.76 10.7176 661.6 10.7176C660.44 10.7176 659.5 11.695 659.5 12.9008C659.5 14.1065 660.44 15.084 661.6 15.084Z" fill="#D69F69"/>
<path d="M650.1 15.084C651.26 15.084 652.2 14.1065 652.2 12.9008C652.2 11.695 651.26 10.7176 650.1 10.7176C648.94 10.7176 648 11.695 648 12.9008C648 14.1065 648.94 15.084 650.1 15.084Z" fill="#D69F69"/>
</g>
<path d="M10.5996 12.9008C10.5996 11.313 9.39961 10.0229 7.89961 10.0229C6.39961 10.0229 5.09961 11.313 5.09961 12.9008C5.09961 14.4886 6.29961 15.7786 7.89961 15.7786C9.49961 15.7786 10.5996 14.4886 10.5996 12.9008Z" fill="#D69F69"/>
<path d="M13.6 15.084C14.7598 15.084 15.7 14.1065 15.7 12.9008C15.7 11.695 14.7598 10.7176 13.6 10.7176C12.4402 10.7176 11.5 11.695 11.5 12.9008C11.5 14.1065 12.4402 15.084 13.6 15.084Z" fill="#D69F69"/>
<path d="M2.1 15.084C3.2598 15.084 4.2 14.1065 4.2 12.9008C4.2 11.695 3.2598 10.7176 2.1 10.7176C0.940202 10.7176 0 11.695 0 12.9008C0 14.1065 0.940202 15.084 2.1 15.084Z" fill="#D69F69"/>
<path d="M316.2 10.6816C315 9.59004 313.4 8.29997 311.2 7.60531C309.1 6.81142 306.4 6.61294 303.8 7.50607C301.3 8.29997 298.8 9.78851 296.3 10.7809C293.7 11.7732 290.9 12.1702 288.1 11.674C285.4 11.2771 282.6 9.98699 281.5 7.70455C280.3 5.52134 281.1 2.54424 283 1.65111C283.9 1.15493 284.9 1.15493 285.8 1.3534C286.7 1.65111 287.3 2.24653 287.6 2.94119C287.9 3.63585 287.9 4.3305 287.6 4.82669C287.4 5.32287 286.9 5.62058 286.5 5.71982C286.1 5.81905 285.8 5.71981 285.5 5.62058C285.3 5.52134 285.1 5.32287 284.9 5.1244C284.6 4.82669 284.4 4.42974 283.9 4.3305C283.5 4.23127 282.9 4.82669 283.2 5.91829C283.4 6.41447 283.8 7.00989 284.5 7.50607C285.2 8.00226 286.3 8.10149 287.2 7.70455C288.1 7.3076 289 6.61294 289.4 5.52134C289.8 4.42974 289.6 3.2389 289 2.24653C288.4 1.25417 287.3 0.460275 286.1 0.162565C284.9 -0.135144 283.6 -0.0359078 282.4 0.559512C281.1 1.25417 280.2 2.54424 279.9 3.93356C279.6 5.4221 279.8 6.91065 280.5 8.29997C281.2 9.68928 282.4 10.6816 283.8 11.3763C284.6 11.8725 285.5 12.1702 286.4 12.3687H279V13.4603H297.4L296.3 13L294.5 12.3687C295.3 12.1702 296 11.8725 296.7 11.5748C299.4 10.3839 301.7 8.99462 304.1 8.10149C306.5 7.20836 309 7.3076 311 8.00226C313.1 8.59768 314.7 9.78852 315.9 10.8801C317.3 11.9717 317.5 11.8725 316.2 10.6816Z" fill="#D69F69"/>
<g clip-path="url(#clip1_100_343)">
<path d="M348.3 10.7175C349.5 9.62595 351.1 8.33587 353.3 7.64121C355.4 6.84732 358.1 6.64885 360.7 7.54198C363.2 8.33587 365.7 9.82442 368.2 10.8168C370.8 11.8091 373.6 12.2061 376.4 11.7099C379.1 11.313 381.9 10.0229 383 7.74045C384.2 5.55724 383.5 2.58015 381.5 1.68702C380.6 1.19083 379.6 1.19083 378.7 1.38931C377.8 1.68702 377.2 2.28244 376.9 2.97709C376.6 3.67175 376.6 4.36641 376.9 4.86259C377.1 5.35877 377.6 5.65648 378 5.75572C378.4 5.85495 378.7 5.75572 379 5.65648C379.3 5.55724 379.5 5.35877 379.6 5.1603C379.9 4.86259 380.1 4.46564 380.6 4.36641C381 4.16793 381.6 4.76335 381.3 5.95419C381.1 6.45037 380.7 7.04579 380 7.54198C379.3 8.03816 378.2 8.1374 377.3 7.74045C376.4 7.3435 375.5 6.64885 375.1 5.55724C374.7 4.46564 374.9 3.2748 375.5 2.28244C376.1 1.29007 377.2 0.496178 378.4 0.198468C379.6 -0.0992413 380.9 0.0992318 382.1 0.694651C383.4 1.38931 384.3 2.67938 384.6 4.0687C384.9 5.55724 384.7 7.04579 384 8.43511C383.3 9.82442 382.1 10.8168 380.7 11.5114C379.9 12.0076 379 12.3053 378.1 12.5038H385.4V13.5954H367.1V12.5038H370C369.2 12.3053 368.5 12.0076 367.8 11.7099C365.1 10.5191 362.8 9.12976 360.4 8.23663C358 7.44274 355.5 7.44274 353.5 8.1374C351.4 8.73281 349.8 10.0229 348.5 11.0153C347.3 12.0076 347.1 11.9084 348.3 10.7175Z" fill="#D69F69"/>
</g>
<path d="M348.4 15.3184C349.6 16.41 351.2 17.7 353.4 18.3947C355.5 19.1886 358.2 19.3871 360.8 18.4939C363.3 17.7 365.8 16.2115 368.3 15.2191C370.9 14.2268 373.7 13.8298 376.5 14.326C379.2 14.7229 382 16.013 383.1 18.2955C384.3 20.4787 383.5 23.4558 381.6 24.3489C380.7 24.8451 379.7 24.8451 378.8 24.6466C377.9 24.3489 377.3 23.7535 377 23.0588C376.7 22.3642 376.7 21.6695 377 21.1733C377.2 20.6771 377.7 20.3794 378.1 20.2802C378.5 20.1809 378.8 20.2802 379.1 20.3794C379.3 20.4787 379.5 20.6771 379.7 20.8756C380 21.1733 380.2 21.5703 380.7 21.6695C381.1 21.7687 381.7 21.1733 381.4 20.0817C381.2 19.5855 380.8 18.9901 380.1 18.4939C379.4 17.9977 378.3 17.8985 377.4 18.2955C376.5 18.6924 375.6 19.3871 375.2 20.4787C374.8 21.5703 375 22.7611 375.6 23.7535C376.2 24.7458 377.3 25.5397 378.5 25.8374C379.7 26.1351 381 26.0359 382.2 25.4405C383.5 24.7458 384.4 23.4558 384.7 22.0664C385 20.5779 384.8 19.0893 384.1 17.7C383.4 16.3107 382.2 15.3184 380.8 14.6237C380 14.1275 379.1 13.8298 378.2 13.6313L385.6 13.6313V12.5397L367.2 12.5397L368.3 13L370.1 13.6313C369.3 13.8298 368.6 14.1275 367.9 14.4252C365.2 15.6161 362.9 17.0054 360.5 17.8985C358.1 18.7916 355.6 18.6924 353.6 17.9977C351.5 17.4023 349.9 16.2115 348.7 15.1199C347.3 14.0283 347.1 14.1275 348.4 15.3184Z" fill="#D69F69"/>
<g clip-path="url(#clip2_100_343)">
<path d="M316.299 15.2825C315.099 16.3741 313.499 17.6641 311.299 18.3588C309.199 19.1527 306.499 19.3512 303.899 18.458C301.399 17.6641 298.899 16.1756 296.399 15.1832C293.799 14.1909 290.999 13.7939 288.199 14.2901C285.499 14.687 282.699 15.9771 281.599 18.2596C280.399 20.4428 281.099 23.4199 283.099 24.313C283.999 24.8092 284.999 24.8092 285.899 24.6107C286.799 24.313 287.399 23.7176 287.699 23.0229C287.999 22.3283 287.999 21.6336 287.699 21.1374C287.499 20.6412 286.999 20.3435 286.599 20.2443C286.199 20.145 285.899 20.2443 285.599 20.3435C285.299 20.4428 285.099 20.6412 284.999 20.8397C284.699 21.1374 284.499 21.5344 283.999 21.6336C283.599 21.8321 282.999 21.2366 283.299 20.0458C283.499 19.5496 283.899 18.9542 284.599 18.458C285.299 17.9618 286.399 17.8626 287.299 18.2596C288.199 18.6565 289.099 19.3512 289.499 20.4428C289.899 21.5344 289.699 22.7252 289.099 23.7176C288.499 24.7099 287.399 25.5038 286.199 25.8015C284.999 26.0992 283.699 25.9008 282.499 25.3053C281.199 24.6107 280.299 23.3206 279.999 21.9313C279.699 20.4428 279.899 18.9542 280.599 17.5649C281.299 16.1756 282.499 15.1832 283.899 14.4886C284.699 13.9924 285.599 13.6947 286.499 13.4962L279.199 13.4962V12.4046L297.499 12.4046V13.4962L294.599 13.4962C295.399 13.6947 296.099 13.9924 296.799 14.2901C299.499 15.4809 301.799 16.8702 304.199 17.7634C306.599 18.5573 309.099 18.5573 311.099 17.8626C313.199 17.2672 314.799 15.9771 316.099 14.9847C317.299 13.9924 317.499 14.0916 316.299 15.2825Z" fill="#D69F69"/>
</g>
<defs>
<clipPath id="clip0_100_343">
<rect width="664" height="19.8473" fill="white" transform="translate(0 3.07634)"/>
</clipPath>
<clipPath id="clip1_100_343">
<rect width="38.1" height="13.5954" fill="white" transform="translate(347.5)"/>
</clipPath>
<clipPath id="clip2_100_343">
<rect width="38.1" height="13.5954" fill="white" transform="matrix(-1 0 0 -1 317.1 26)"/>
</clipPath>
</defs>
</svg>
