<svg width="296" height="6" viewBox="0 0 296 6" fill="none" xmlns="http://www.w3.org/2000/svg">
<path d="M142.676 2.99999L139.448 0.299988L136.15 2.99999L139.448 5.69999L142.676 2.99999Z" fill="#0BAB64"/>
<path d="M139.448 6L135.876 3L139.448 0L143.02 3L139.448 6ZM136.494 3L139.379 5.4L142.264 3L139.448 0.6L136.494 3Z" fill="#0BAB64"/>
<path d="M151.538 2.99999L149.477 1.29999L147.416 2.99999L149.477 4.69999L151.538 2.99999Z" fill="#0BAB64"/>
<path d="M149.477 5L147.072 3L149.477 1L151.881 3L149.477 5ZM147.759 3L149.477 4.4L151.194 3L149.477 1.6L147.759 3Z" fill="#0BAB64"/>
<path d="M295.45 3.00001L293.39 2.10001L291.397 3.00001L293.39 3.90001L295.45 3.00001Z" fill="#0BAB64"/>
<path d="M293.39 4.19999L290.779 2.99999L293.39 1.89999L296 2.99999L293.39 4.19999ZM291.947 2.99999L293.39 3.59999L294.832 2.99999L293.39 2.39999L291.947 2.99999Z" fill="#0BAB64"/>
<path d="M4.67108 3.00001L2.61027 2.10001L0.618164 3.00001L2.61027 3.90001L4.67108 3.00001Z" fill="#0BAB64"/>
<path d="M2.61035 4.19999L0 2.99999L2.61035 1.89999L5.28939 2.99999L2.61035 4.19999ZM1.16779 2.99999L2.61035 3.59999L4.05291 2.99999L2.61035 2.39999L1.16779 2.99999Z" fill="#0BAB64"/>
<path d="M147.486 2.99999L145.493 1.29999L143.433 2.99999L145.493 4.69999L147.486 2.99999Z" fill="#0BAB64"/>
<path d="M145.493 5L143.089 3L145.493 1L147.897 3L145.493 5ZM143.776 3L145.493 4.4L147.21 3L145.493 1.6L143.776 3Z" fill="#0BAB64"/>
<path d="M135.395 2.99999L133.403 1.29999L131.342 2.99999L133.403 4.69999L135.395 2.99999Z" fill="#0BAB64"/>
<path d="M133.402 5L130.998 3L133.402 1L135.807 3L133.402 5ZM131.685 3L133.402 4.4L135.12 3L133.402 1.6L131.685 3Z" fill="#0BAB64"/>
<path d="M131.411 2.99999L129.35 1.29999L127.289 2.99999L129.35 4.69999L131.411 2.99999Z" fill="#0BAB64"/>
<path d="M129.35 5L126.945 3L129.35 1L131.754 3L129.35 5ZM127.632 3L129.35 4.4L131.067 3L129.35 1.6L127.632 3Z" fill="#0BAB64"/>
<path d="M293.321 2.79999H151.126C151.057 2.79999 150.988 2.89999 150.988 2.99999C150.988 3.09999 151.057 3.19999 151.126 3.19999H293.321C293.39 3.19999 293.458 3.09999 293.458 2.99999C293.527 2.89999 293.458 2.79999 293.321 2.79999Z" fill="#0BAB64"/>
<path d="M293.321 3.5H151.126C150.92 3.5 150.782 3.3 150.782 3C150.782 2.7 150.92 2.5 151.126 2.5H293.321C293.527 2.5 293.665 2.7 293.665 3C293.665 3.3 293.527 3.5 293.321 3.5Z" fill="#0BAB64"/>
<path d="M127.701 2.79999H2.8161C2.7474 2.79999 2.67871 2.89999 2.67871 2.99999C2.67871 3.09999 2.7474 3.19999 2.8161 3.19999H127.701C127.769 3.19999 127.838 3.09999 127.838 2.99999C127.838 2.89999 127.769 2.79999 127.701 2.79999Z" fill="#0BAB64"/>
<path d="M127.701 3.5H2.81612C2.61004 3.5 2.47266 3.3 2.47266 3C2.47266 2.7 2.61004 2.5 2.81612 2.5H127.701C127.907 2.5 128.044 2.7 128.044 3C128.044 3.3 127.838 3.5 127.701 3.5Z" fill="#0BAB64"/>
</svg>
