<?xml version="1.0" encoding="UTF-8"?>
<!DOCTYPE svg PUBLIC "-//W3C//DTD SVG 1.1//EN" "http://www.w3.org/Graphics/SVG/1.1/DTD/svg11.dtd">
<!-- Creator: CorelDRAW 2017 -->
<svg xmlns="http://www.w3.org/2000/svg" xml:space="preserve" width="1417px" height="1147px" version="1.1" style="shape-rendering:geometricPrecision; text-rendering:geometricPrecision; image-rendering:optimizeQuality; fill-rule:evenodd; clip-rule:evenodd"
viewBox="0 0 1436 1162"
 xmlns:xlink="http://www.w3.org/1999/xlink">
 <defs>
  <style type="text/css">
   <![CDATA[
    .fil1 {fill:#FDB92E}
    .fil0 {fill:#309161}
   ]]>
  </style>
 </defs>
 <g id="Layer_x0020_1">
  <metadata id="CorelCorpID_0Corel-Layer"/>
  <circle class="fil0" cx="230" cy="590" r="46"/>
  <circle class="fil0" cx="95" cy="590" r="46"/>
  <circle class="fil0" cx="928" cy="565" r="46"/>
  <circle class="fil0" cx="1061" cy="565" r="46"/>
  <circle class="fil0" cx="669" cy="1115" r="46"/>
  <circle class="fil0" cx="534" cy="1115" r="46"/>
  <circle class="fil0" cx="691" cy="46" r="46"/>
  <path class="fil0" d="M347 1046l924 0 0 -513 -101 0 0 313 -100 0 0 -187 -278 0 0 100 114 0c15,0 27,2 38,7 18,8 38,25 46,44 2,5 5,11 6,17 1,5 3,14 3,20l-304 0 0 -187 -97 0 0 187 -147 0 0 -313 -102 0 0 513z"/>
  <path class="fil0" d="M539 621l304 0 0 -124 593 0 0 -194c0,-5 -6,-4 -12,-4l-108 0c-19,0 -32,-1 -46,-15 -11,-11 -20,-23 -20,-43 0,-45 45,-72 84,-55 16,7 29,24 33,41 1,5 1,9 2,13l53 0c6,0 14,2 14,-4l0 -123 -258 0 0 184 -93 0 0 -184 -96 0 0 184 -146 0 0 -184 -96 0 0 333c0,41 -62,76 -100,30 -3,-4 -3,-3 -5,-8 -3,-6 -6,-12 -6,-21l0 -335 -96 0 0 506z"/>
  <path class="fil0" d="M28 1046l110 0 0 -196c-17,-4 -39,-27 -39,-52 0,-21 2,-33 18,-50 35,-35 105,-16 105,47 0,15 -6,27 -13,36 -3,4 -8,9 -12,11 -2,1 -5,3 -7,5 -3,2 -7,2 -7,6l0 193 110 0 0 -386 -266 0 0 386z"/>
  <polygon class="fil0" points="1329,1046 1432,1046 1432,533 1329,533 "/>
  <path class="fil1" d="M236 429c44,-42 86,-62 151,-64 0,-85 0,-171 0,-256 -74,-13 -120,17 -151,39l0 32 0 248z"/>
  <path class="fil1" d="M459 433l0 -221 0 -25c0,-4 -1,-5 -4,-5 -1,0 -3,0 -5,0 -1,0 -2,0 -3,0 -4,0 -9,0 -12,0l0 30 0 0 0 203c-39,2 -117,-7 -199,57l0 23c59,-49 127,-58 203,-59 7,0 20,3 20,-4z"/>
  <path class="fil1" d="M249 428c-4,4 -9,7 -13,12l0 25c0,-1 1,-2 5,-6 53,-45 106,-56 175,-57l6 -1c0,0 1,-2 1,-5l0 -244c0,-4 -2,-6 -4,-6 0,0 -15,0 -19,0l-1 120 0 3 0 4 0 4 0 4 0 4 0 4 0 4 0 4 0 4 0 4 0 4 0 4 0 4 0 4 0 4 0 4 0 4 0 4 0 4 0 4 0 4 0 4 0 4 0 4 0 4 0 0c0,5 0,8 0,10l0 5c-64,2 -108,17 -152,49z"/>
  <path class="fil1" d="M224 429c-44,-42 -86,-62 -151,-64 0,-85 0,-171 0,-256 74,-13 120,17 151,39l0 32 0 248z"/>
  <path class="fil1" d="M0 433l0 -221 0 -25c0,-4 1,-5 4,-5 1,0 3,0 5,0 1,0 2,0 3,0 4,0 9,0 12,0l0 30 0 0 0 203c39,2 117,-7 199,57l0 23c-59,-49 -127,-58 -203,-59 -7,0 -20,3 -20,-4z"/>
  <path class="fil1" d="M210 428c4,4 9,7 13,12l0 25c0,-1 -1,-2 -5,-6 -53,-45 -106,-56 -175,-57l-6 -1c0,0 -1,-2 -1,-5l0 -244c0,-4 2,-6 4,-6 0,0 15,0 19,0l1 120 0 3 0 4 0 4 0 4 0 4 0 4 0 4 0 4 0 4 0 4 0 4 0 4 0 4 0 4 0 4 0 4 0 4 0 4 0 4 0 4 0 4 0 4 0 4 0 4 0 4 0 0c0,5 0,8 0,10l0 5c64,2 108,17 152,49z"/>
  <circle class="fil0" cx="95" cy="590" r="46"/>
 </g>
</svg>
