<?xml version="1.0" standalone="no"?>
<!DOCTYPE svg PUBLIC "-//W3C//DTD SVG 20010904//EN"
 "http://www.w3.org/TR/2001/REC-SVG-20010904/DTD/svg10.dtd">
<svg version="1.0" xmlns="http://www.w3.org/2000/svg"
 width="300.000000pt" height="304.000000pt" viewBox="0 0 300.000000 304.000000"
 preserveAspectRatio="xMidYMid meet">
<metadata>
Created by potrace 1.10, written by Peter Selinger 2001-2011
</metadata>
<g transform="translate(0.000000,304.000000) scale(0.100000,-0.100000)"
fill="#000000" stroke="none">
<path d="M1386 2509 c-32 -25 -35 -70 -6 -99 41 -41 110 -13 110 43 0 38 -7
50 -37 66 -30 15 -36 14 -67 -10z m62 -46 c5 -17 -26 -29 -40 -15 -6 6 -7 15
-3 22 9 14 37 9 43 -7z"/>
<path d="M490 2171 l0 -191 23 0 c45 0 128 -31 162 -61 l35 -31 0 206 0 206
-57 26 c-32 15 -82 29 -110 32 l-53 4 0 -191z m140 120 l35 -16 3 -151 3 -151
-68 23 -68 23 -3 137 c-1 76 0 144 2 151 6 16 42 10 96 -16z"/>
<path d="M870 2354 c-8 -3 -41 -17 -72 -31 l-58 -27 0 -203 0 -204 39 31 c38
31 114 60 158 60 l23 0 0 190 0 190 -37 -1 c-21 0 -45 -3 -53 -5z m48 -185 l3
-146 -70 -25 c-58 -21 -71 -22 -76 -11 -7 20 -6 242 1 270 4 15 22 29 58 42
83 33 81 36 84 -130z"/>
<path d="M1200 1968 l0 -383 227 2 228 3 0 92 0 93 453 0 452 0 0 148 0 147
-105 0 c-146 0 -175 16 -175 96 0 56 42 90 105 85 23 -2 75 -55 75 -76 0 -11
12 -15 50 -15 l50 0 0 95 0 95 -195 0 -195 0 0 -140 0 -140 -75 0 -75 0 0 140
0 140 -70 0 -70 0 0 -140 0 -140 -116 0 -116 0 4 140 3 140 -72 0 -73 0 0
-268 0 -269 -25 -23 c-37 -34 -90 -33 -121 4 -24 27 -24 28 -24 292 l0 264
-70 0 -70 0 0 -382z m100 102 c0 -261 3 -277 56 -319 36 -28 102 -28 138 0 53
41 56 59 56 303 0 123 3 231 6 240 8 21 50 21 58 0 3 -9 6 -62 6 -119 0 -100
1 -104 26 -124 23 -18 41 -21 124 -21 140 0 144 3 150 157 l5 118 28 3 27 3 0
-106 c0 -151 16 -174 118 -175 54 0 66 4 87 25 24 23 25 30 25 140 l0 116 153
-3 152 -3 3 -39 c5 -61 -11 -65 -62 -18 -44 41 -59 47 -101 42 -86 -9 -142
-116 -99 -190 29 -47 70 -64 169 -70 l90 -5 3 -94 c2 -59 -1 -98 -9 -107 -9
-11 -85 -14 -431 -13 -476 0 -458 3 -458 -76 0 -24 -3 -57 -6 -74 l-6 -31
-184 0 -184 0 0 340 0 340 30 0 30 0 0 -240z"/>
<path d="M434 2278 c3 -13 6 -98 6 -189 l0 -166 65 -6 c71 -7 146 -35 182 -69
18 -17 23 -18 23 -6 0 37 -103 95 -190 105 l-50 6 0 173 c0 171 0 174 -21 174
-17 0 -20 -4 -15 -22z"/>
<path d="M990 2126 l0 -173 -57 -7 c-92 -11 -193 -65 -193 -104 0 -12 5 -11
23 6 37 35 113 63 187 69 l70 6 0 188 c0 161 -2 189 -15 189 -13 0 -15 -26
-15 -174z"/>
<path d="M380 2061 l0 -188 82 -8 c98 -8 198 -37 223 -65 22 -25 35 -26 29 -2
-12 45 -120 89 -232 95 l-67 3 0 177 c0 162 -1 177 -17 177 -17 0 -18 -16 -18
-189z"/>
<path d="M1038 2074 l-3 -176 -69 -5 c-39 -3 -90 -11 -115 -20 -55 -18 -111
-58 -111 -79 0 -11 8 -9 33 10 42 32 116 53 216 62 l81 7 0 188 c0 160 -2 189
-15 189 -12 0 -15 -29 -17 -176z"/>
<path d="M1746 1719 c-50 -39 -22 -119 42 -119 71 0 90 99 25 129 -32 15 -36
14 -67 -10z m59 -49 c0 -8 -8 -16 -17 -18 -13 -2 -18 3 -18 18 0 15 5 20 18
18 9 -2 17 -10 17 -18z"/>
<path d="M1963 1730 c-46 -18 -56 -74 -20 -108 32 -30 71 -28 96 4 26 33 26
55 4 82 -22 25 -51 33 -80 22z m42 -61 c0 -7 -8 -15 -17 -17 -18 -3 -25 18
-11 32 10 10 28 1 28 -15z"/>
<path d="M950 1340 l0 -380 685 0 685 0 0 380 0 380 -75 0 -75 0 0 -235 0
-235 -75 0 -75 0 0 140 0 140 -205 0 -205 0 0 -70 0 -70 98 0 c119 0 156 -16
189 -80 12 -23 20 -47 17 -51 -3 -5 -106 -9 -230 -9 l-224 0 0 140 0 140 -70
0 -70 0 0 -140 0 -141 -111 3 -112 3 2 233 2 232 -75 0 -76 0 0 -380z m100
321 c6 -12 10 -99 10 -215 l0 -195 26 -20 c23 -18 41 -21 121 -21 91 0 96 1
124 29 29 29 29 31 29 141 l0 111 28 -3 27 -3 5 -118 c7 -166 -8 -157 267
-157 214 0 214 0 238 25 30 29 31 44 5 95 -34 67 -79 89 -195 99 -78 6 -80 7
-83 34 l-3 28 163 -3 163 -3 5 -116 c6 -143 12 -152 109 -157 62 -4 68 -2 93
25 l28 29 2 204 c3 188 4 205 21 208 46 9 47 -1 47 -337 0 -174 -4 -322 -8
-329 -7 -10 -142 -12 -643 -10 l-634 3 -3 325 c-1 179 0 330 3 337 7 20 43 15
55 -6z"/>
<path d="M2410 1340 l0 -380 73 0 72 0 0 380 0 380 -72 0 -73 0 0 -380z m95 0
l0 -335 -25 0 -25 0 -3 325 c-1 179 0 331 3 338 3 7 15 12 27 10 l23 -3 0
-335z"/>
<path d="M526 1685 c-26 -27 -29 -56 -9 -84 29 -38 74 -40 102 -5 25 32 26 52
5 82 -18 26 -74 30 -98 7z m64 -45 c0 -13 -7 -20 -20 -20 -19 0 -27 20 -13 33
13 14 33 6 33 -13z"/>
<path d="M734 1692 c-19 -13 -34 -50 -27 -69 19 -55 74 -70 111 -30 26 27 28
54 6 85 -15 22 -66 30 -90 14z m54 -55 c2 -12 -3 -17 -17 -17 -12 0 -21 6 -21
13 0 31 32 34 38 4z"/>
<path d="M470 1245 l0 -285 80 0 80 0 0 143 c0 139 -1 144 -24 166 -33 31 -40
65 -21 105 28 59 93 73 144 30 41 -34 44 -98 6 -134 -23 -22 -24 -29 -27 -166
l-3 -144 81 0 82 0 -2 285 -1 285 -197 0 -198 0 0 -285z m354 229 c8 -21 6
-413 -3 -444 -5 -19 -14 -26 -39 -28 l-32 -3 0 113 c0 106 2 117 25 148 45 61
24 146 -47 191 -51 31 -103 21 -150 -30 -48 -51 -52 -106 -13 -164 24 -35 26
-43 23 -144 l-3 -108 -29 -3 c-16 -2 -32 2 -37 9 -9 16 -12 439 -3 463 5 14
27 16 154 16 126 0 149 -2 154 -16z"/>
<path d="M1177 902 c-39 -42 -9 -112 46 -112 55 0 84 61 51 108 -19 28 -74 30
-97 4z m59 -58 c-6 -17 -8 -17 -24 0 -15 15 -15 18 -2 26 19 12 35 -3 26 -26z"/>
<path d="M1377 902 c-39 -42 -9 -112 46 -112 55 0 84 61 51 108 -19 28 -74 30
-97 4z m63 -41 c0 -24 -12 -32 -30 -21 -11 7 -11 11 -1 24 18 22 31 20 31 -3z"/>
</g>
</svg>
